<?xml version="1.0" encoding="utf-8"?>
<!DOCTYPE svg PUBLIC "-//W3C//DTD SVG 1.1//EN" "http://www.w3.org/Graphics/SVG/1.1/DTD/svg11.dtd">
<svg version="1.1" baseProfile="full"
 xmlns="http://www.w3.org/2000/svg"
 xmlns:xlink="http://www.w3.org/1999/xlink"
 xmlns:ev="http://www.w3.org/2001/xml-events" 
  height="33px" 
  width="47px" 
>
<path fill="rgb( 9, 71, 167 )"
 d="M43.627,13.187 C43.627,13.187 3.35400000000004,13.187 3.35400000000004,13.187 C1.50300000000004,13.187 0,14.665 0,16.486 C0,18.316 1.50300000000004,19.794 3.35400000000004,19.794 C3.35400000000004,19.794 43.627,19.794 43.627,19.794 C45.487,19.794 46.991,18.316 46.991,16.486 C46.991,14.665 45.478,13.187 43.627,13.187 ZM3.36400000000003,6.588 C3.36400000000003,6.588 43.636,6.588 43.636,6.588 C45.497,6.588 47,5.119 47,3.289 C47,1.469 45.497,0 43.636,0 C43.636,0 3.36400000000003,0 3.36400000000003,0 C1.51300000000003,0 0.00900000000001,1.469 0.00900000000001,3.289 C0,5.119 1.50300000000004,6.588 3.36400000000003,6.588 ZM43.627,26.401 C43.627,26.401 3.35400000000004,26.401 3.35400000000004,26.401 C1.50300000000004,26.401 0,27.871 0,29.7 C0,31.521 1.50300000000004,33 3.35400000000004,33 C3.35400000000004,33 43.627,33 43.627,33 C45.487,33 46.991,31.521 46.991,29.7 C46.991,27.88 45.478,26.401 43.627,26.401 Z "/>
</svg>
