<?xml version="1.0" encoding="utf-8"?>
<!DOCTYPE svg PUBLIC "-//W3C//DTD SVG 1.1//EN" "http://www.w3.org/Graphics/SVG/1.1/DTD/svg11.dtd">
<svg version="1.1" baseProfile="full"
 xmlns="http://www.w3.org/2000/svg"
 xmlns:xlink="http://www.w3.org/1999/xlink"
 xmlns:ev="http://www.w3.org/2001/xml-events" 
  height="36px" 
  width="37px" 
>
<path fill="rgb( 9, 71, 167 )"
 d="M35.647,34.652 C35.416,34.887 35.113,35.004 34.81,35.004 C34.507,35.004 34.204,34.887 33.973,34.652 C33.973,34.652 24.228,25.276 24.228,25.276 C21.681,27.48 18.486,28.69 15.103,28.69 C11.334,28.69 7.791,27.198 5.125,24.489 C2.45999999999998,21.78 0.99200000000002,18.178 0.99200000000002,14.348 C0.99200000000002,10.517 2.45999999999998,6.91499999999999 5.125,4.20699999999999 C7.79000000000002,1.49700000000001 11.334,0.005 15.103,0.005 C18.873,0.005 22.417,1.49700000000001 25.082,4.20699999999999 C30.294,9.50399999999999 30.56,17.943 25.897,23.572 C25.897,23.572 35.647,32.952 35.647,32.952 C36.109,33.422 36.109,34.183 35.647,34.652 ZM23.408,5.90799999999999 C21.19,3.65299999999999 18.242,2.41200000000001 15.103,2.41200000000001 C11.966,2.41200000000001 9.017,3.65299999999999 6.79899999999998,5.90799999999999 C4.57999999999998,8.16300000000001 3.35899999999998,11.16 3.35899999999998,14.348 C3.35899999999998,17.535 4.58100000000002,20.532 6.79899999999998,22.788 C9.01799999999997,25.043 11.966,26.284 15.103,26.284 C18.241,26.284 21.19,25.042 23.408,22.788 C27.987,18.134 27.987,10.562 23.408,5.90799999999999 Z "/>
</svg>
