<?xml version="1.0" encoding="utf-8"?>
<!DOCTYPE svg PUBLIC "-//W3C//DTD SVG 1.1//EN" "http://www.w3.org/Graphics/SVG/1.1/DTD/svg11.dtd">
<svg version="1.1" baseProfile="full"
 xmlns="http://www.w3.org/2000/svg"
 xmlns:xlink="http://www.w3.org/1999/xlink"
 xmlns:ev="http://www.w3.org/2001/xml-events" 
  height="52px" 
  width="51px" 
>
<path fill="rgb( 9, 71, 167 )"
 d="M25.495,36.067 C33.398,36.067 39.833,28.203 39.833,18.533 C39.833,8.864 33.398,0.999 25.495,0.999 C21.599,0.999 17.948,2.866 15.236,6.263 C12.605,9.557 11.157,13.913 11.157,18.523 C11.157,28.193 17.591,36.067 25.495,36.067 ZM25.495,4.182 C31.644,4.182 36.651,10.618 36.651,18.523 C36.651,26.428 31.644,32.864 25.495,32.864 C19.346,32.864 14.338,26.428 14.338,18.523 C14.338,10.618 19.346,4.182 25.495,4.182 ZM36.651,32.875 C35.774,32.875 35.061,33.589 35.061,34.466 C35.061,35.343 35.774,36.057 36.651,36.057 C42.801,36.057 47.808,41.065 47.808,47.216 C47.808,48.093 47.094,48.807 46.217,48.807 C46.217,48.807 4.783,48.807 4.783,48.807 C3.906,48.807 3.192,48.093 3.192,47.216 C3.192,41.065 8.199,36.057 14.349,36.057 C15.226,36.057 15.939,35.343 15.939,34.466 C15.939,33.589 15.226,32.875 14.349,32.875 C6.435,32.875 0,39.311 0,47.216 C0,49.858 2.142,52 4.783,52 C4.783,52 40.639,52 40.639,52 C40.639,52 46.217,52 46.217,52 C48.848,52 51,49.858 51,47.216 C50.99,39.311 44.555,32.875 36.651,32.875 Z "/>
</svg>
