<?xml version="1.0" encoding="utf-8"?>
<!DOCTYPE svg PUBLIC "-//W3C//DTD SVG 1.1//EN" "http://www.w3.org/Graphics/SVG/1.1/DTD/svg11.dtd">
<svg version="1.1" baseProfile="full"
 xmlns="http://www.w3.org/2000/svg"
 xmlns:xlink="http://www.w3.org/1999/xlink"
 xmlns:ev="http://www.w3.org/2001/xml-events" 
  height="52px" 
  width="56px" 
>
<path fill="rgb( 9, 71, 167 )"
 d="M27.762,51.999 C27.762,51.999 26.839,51.457 26.839,51.457 C26.275,51.127 12.941,43.225 5.33199999999999,31.253 C1.28899999999999,24.896 0.03199999999998,18.184 1.79000000000002,12.356 C3.23099999999999,7.585 6.57100000000003,3.812 11.198,1.741 C12.812,1.017 14.479,0.65 16.151,0.65 C21.504,0.65 25.659,4.356 27.762,6.718 C29.867,4.356 34.02,0.65 39.375,0.65 C41.047,0.65 42.713,1.015 44.326,1.741 C48.953,3.812 52.295,7.584 53.735,12.356 C55.494,18.182 54.235,24.893 50.194,31.255 C42.585,43.225 29.25,51.127 28.687,51.457 C28.687,51.457 27.762,51.999 27.762,51.999 ZM16.149,4.277 C14.994,4.277 13.833,4.538 12.689,5.05 C9.041,6.685 6.40800000000002,9.652 5.27499999999998,13.401 C3.82499999999999,18.206 4.93799999999999,23.859 8.40800000000002,29.316 C14.44,38.805 24.653,45.778 27.762,47.762 C30.871,45.774 41.095,38.789 47.118,29.316 C50.586,23.859 51.7,18.206 50.249,13.401 C49.116,9.65 46.483,6.683 42.833,5.05 C41.689,4.538 40.528,4.277 39.375,4.277 C33.605,4.277 29.32,10.576 29.278,10.64 C29.278,10.64 27.762,12.903 27.762,12.903 C27.762,12.903 26.248,10.64 26.248,10.64 C26.206,10.58 21.882,4.277 16.149,4.277 Z "/>
</svg>
