<svg xmlns="http://www.w3.org/2000/svg" width="29.875" height="38.1" viewBox="0 0 29.875 38.1">
  <defs>
    <style>
      .cls-1 {
        fill: #818181;
        fill-rule: evenodd;
      }
    </style>
  </defs>
  <path id="Pinterest_Icon" data-name="Pinterest Icon" class="cls-1" d="M601.975,8763.83c-2.394,0-4.646-1.28-5.416-2.73,0,0-1.289,5.04-1.56,6.01a23.142,23.142,0,0,1-4,7.16,0.294,0.294,0,0,1-.527-0.12,24.186,24.186,0,0,1,.066-8.32c0.426-1.77,2.853-11.92,2.853-11.92a8.264,8.264,0,0,1-.709-3.46c0-3.24,1.906-5.66,4.278-5.66,2.017,0,2.987,1.49,2.987,3.28,0,2-1.288,4.99-1.955,7.77a3.4,3.4,0,0,0,3.5,4.21c4.2,0,7.031-5.33,7.031-11.64,0-4.79-3.273-8.38-9.226-8.38-6.724,0-10.916,4.95-10.916,10.48a6.249,6.249,0,0,0,1.464,4.29,1.053,1.053,0,0,1,.318,1.22c-0.109.4-.349,1.37-0.453,1.76a0.761,0.761,0,0,1-1.109.54c-3.1-1.24-4.54-4.59-4.54-8.36,0-6.21,5.31-13.66,15.846-13.66,8.465,0,14.036,6.04,14.036,12.53C613.938,8757.41,609.1,8763.83,601.975,8763.83Z" transform="translate(-584.063 -8736.28)"/>
</svg>
