<svg xmlns="http://www.w3.org/2000/svg" width="36.907" height="30.09" viewBox="0 0 36.907 30.09">
  <defs>
    <style>
      .cls-1 {
        fill: #fff;
        fill-rule: evenodd;
      }
    </style>
  </defs>
  <path id="Twitter_Icon" data-name="Twitter Icon" class="cls-1" d="M258.94,8743.26a14.809,14.809,0,0,1-4.349,1.2,7.621,7.621,0,0,0,3.329-4.2,15.112,15.112,0,0,1-4.807,1.84,7.587,7.587,0,0,0-12.9,6.93,21.47,21.47,0,0,1-15.6-7.94,7.631,7.631,0,0,0,2.344,10.15,7.521,7.521,0,0,1-3.429-.96c0,0.04,0,.07,0,0.1a7.6,7.6,0,0,0,6.074,7.45,7.706,7.706,0,0,1-2,.26,7.426,7.426,0,0,1-1.424-.13,7.558,7.558,0,0,0,7.072,5.27,15.15,15.15,0,0,1-9.4,3.26,15.394,15.394,0,0,1-1.807-.11,21.336,21.336,0,0,0,11.605,3.41c13.926,0,21.539-11.57,21.539-21.61,0-.33-0.006-0.66-0.02-0.98A15.467,15.467,0,0,0,258.94,8743.26Z" transform="translate(-222.031 -8739.69)"/>
</svg>
