<svg xmlns="http://www.w3.org/2000/svg" width="36.906" height="37.15" viewBox="0 0 36.906 37.15">
  <defs>
    <style>
      .cls-1 {
        fill: #818181;
        fill-rule: evenodd;
      }
    </style>
  </defs>
  <path id="Rss_Icon" data-name="Rss Icon" class="cls-1" d="M319.63,8772a4.935,4.935,0,1,1,4.923-4.93A4.925,4.925,0,0,1,319.63,8772Zm12.349,0.03a17.371,17.371,0,0,0-5.061-12.31,17.084,17.084,0,0,0-12.2-5.09v-7.12a24.473,24.473,0,0,1,24.369,24.52h-7.105Zm12.549,0.01a29.957,29.957,0,0,0-29.8-30.04v-7.12a37.076,37.076,0,0,1,36.906,37.16h-7.1Z" transform="translate(-314.719 -8734.88)"/>
</svg>
