<svg xmlns="http://www.w3.org/2000/svg" width="29" height="29" viewBox="0 0 29 29">
  <defs>
    <style>
      .cls-1 {
        fill: #818181;
        fill-rule: evenodd;
      }
    </style>
  </defs>
  <path class="cls-1" d="M494,8748.38v19.17h6.209v-19.17H494Zm3.513-9.38a3.314,3.314,0,1,0-.081,6.62h0.04A3.315,3.315,0,1,0,497.513,8739Zm18.338,9.38a6.135,6.135,0,0,0-5.6,3.17v-2.72h-6.209c0.081,1.8,0,19.17,0,19.17h6.209v-10.7a4.481,4.481,0,0,1,.2-1.56,3.416,3.416,0,0,1,3.186-2.33c2.248,0,3.146,1.76,3.146,4.34V8768H523v-10.99C523,8751.12,519.937,8748.38,515.851,8748.38Z" transform="translate(-494 -8739)"/>
</svg>
