<?xml version="1.0" encoding="utf-8"?>
<!DOCTYPE svg PUBLIC "-//W3C//DTD SVG 1.1//EN" "http://www.w3.org/Graphics/SVG/1.1/DTD/svg11.dtd">
<svg version="1.1" baseProfile="full"
 xmlns="http://www.w3.org/2000/svg"
 xmlns:xlink="http://www.w3.org/1999/xlink"
 xmlns:ev="http://www.w3.org/2001/xml-events" 
  height="49px" 
  width="60px" 
>
<path fill="rgb( 9, 71, 167 )"
 d="M58.53,17.934 C58.53,17.934 51.889,32.266 51.889,32.266 C51.705,32.864 50.813,34.465 48.907,34.465 C48.907,34.465 22.603,34.465 22.603,34.465 C20.59,34.465 19.254,33.016 18.981,32.412 C18.981,32.412 14.347,17.598 14.347,17.598 C13.1,13.467 15.556,12.151 17.246,12.151 C18.937,12.151 50.983,12.151 55.256,12.151 C59.056,12.15 59.562,15.456 58.53,17.934 C58.53,17.934 58.53,17.934 58.53,17.934 ZM17.862,15.976 C17.887,16.116 17.925,16.288 17.988,16.491 C17.988,16.491 22.401,30.586 22.401,30.586 C22.464,30.625 22.534,30.65 22.603,30.65 C22.603,30.65 48.439,30.65 48.439,30.65 C48.439,30.65 55.042,16.415 55.042,16.415 C55.1,16.249 55.143,16.103 55.163,15.976 C55.163,15.976 17.862,15.976 17.862,15.976 C17.862,15.976 17.862,15.976 17.862,15.976 ZM25.939,48.993 C24.084,48.993 22.584,47.487 22.584,45.624 C22.584,43.763 24.084,42.256 25.939,42.256 C27.8,42.256 29.301,43.763 29.301,45.624 C29.301,47.487 27.8,48.993 25.939,48.993 C25.939,48.993 25.939,48.993 25.939,48.993 ZM48.172,48.993 C46.318,48.993 44.817,47.487 44.817,45.624 C44.817,43.763 46.318,42.256 48.172,42.256 C50.034,42.256 51.534,43.763 51.534,45.624 C51.534,47.487 50.034,48.993 48.172,48.993 C48.172,48.993 48.172,48.993 48.172,48.993 ZM52.516,41.907 C52.516,41.907 26.888,41.907 26.888,41.907 C21.742,41.907 19.697,37.02 19.608,36.81 C19.582,36.753 19.564,36.689 19.544,36.632 C19.544,36.632 11.492,9.119 10.871,7.003 C10.282,5.001 9.79399999999998,4.716 8.28199999999998,4.716 C8.28199999999998,4.716 1.85700000000003,4.716 1.85700000000003,4.716 C0.83100000000002,4.716 0.00200000000001,3.89 0.00200000000001,2.86 C0.00200000000001,1.83 0.83100000000002,0.998 1.85700000000003,0.998 C1.85700000000003,0.998 8.28199999999998,0.998 8.28199999999998,0.998 C12.416,0.998 13.715,3.501 14.423,5.948 C15.025,7.989 22.502,33.53 23.071,35.469 C23.267,35.894 24.451,38.189 26.888,38.189 C26.888,38.189 52.516,38.189 52.516,38.189 C53.541,38.189 54.37,39.021 54.37,40.045 C54.371,41.074 53.541,41.907 52.516,41.907 C52.516,41.907 52.516,41.907 52.516,41.907 Z "/>
</svg>
