<?xml version="1.0" encoding="utf-8"?>
<!DOCTYPE svg PUBLIC "-//W3C//DTD SVG 1.1//EN" "http://www.w3.org/Graphics/SVG/1.1/DTD/svg11.dtd">
<svg version="1.1" baseProfile="full"
 xmlns="http://www.w3.org/2000/svg"
 xmlns:xlink="http://www.w3.org/1999/xlink"
 xmlns:ev="http://www.w3.org/2001/xml-events" 
  height="55px" 
  width="55px" 
>
<path fill="rgb( 9, 71, 167 )"
 d="M52.557,1 C52.194,1.011 51.849,1.163 51.596,1.423 C51.596,1.423 40.665,12.342 40.665,12.342 C40.338,12.484 40.077,12.745 39.935,13.072 C39.935,13.072 36.88,16.125 36.88,16.125 C36.327,16.67 36.321,17.56 36.866,18.112 C37.412,18.665 38.303,18.67 38.856,18.125 C38.857,18.124 38.858,18.123 38.859,18.122 C38.859,18.122 41.108,15.875 41.108,15.875 C41.68,17.231 41.412,18.855 40.3,19.965 C38.833,21.431 36.502,21.431 35.035,19.965 C33.567,18.499 33.567,16.151 35.035,14.685 C35.666,14.055 36.446,13.717 37.264,13.629 C37.482,13.606 37.7,13.595 37.917,13.61 C38.692,13.665 39.365,13.083 39.421,12.309 C39.476,11.535 38.894,10.863 38.119,10.807 C38.116,10.807 38.113,10.806 38.11,10.806 C37.728,10.781 37.335,10.784 36.956,10.826 C35.527,10.978 34.147,11.616 33.055,12.707 C30.516,15.245 30.516,19.405 33.055,21.943 C35.595,24.48 39.74,24.48 42.28,21.943 C44.474,19.75 44.762,16.343 43.164,13.821 C43.164,13.821 46.316,10.652 46.316,10.652 C46.316,10.652 48.91,13.245 48.91,13.245 C48.91,13.245 48.891,25.86 48.891,25.86 C48.891,25.86 24.138,50.591 24.138,50.591 C24.138,50.591 4.38200000000001,30.814 4.38200000000001,30.814 C4.38200000000001,30.814 29.116,6.102 29.116,6.102 C29.116,6.102 41.761,6.102 41.761,6.102 C41.761,6.102 42.414,6.755 42.414,6.755 C42.922,7.339 43.809,7.402 44.394,6.894 C44.979,6.386 45.041,5.501 44.533,4.916 C44.49,4.867 44.444,4.82 44.394,4.777 C44.394,4.777 43.337,3.721 43.337,3.721 C43.074,3.452 42.714,3.3 42.337,3.299 C42.337,3.299 28.539,3.299 28.539,3.299 C28.163,3.3 27.803,3.452 27.54,3.721 C27.54,3.721 1.40299999999999,29.834 1.40299999999999,29.834 C0.85900000000001,30.381 0.85900000000001,31.265 1.40299999999999,31.812 C1.40299999999999,31.812 23.158,53.566 23.158,53.566 C23.705,54.111 24.59,54.111 25.137,53.566 C25.137,53.566 51.274,27.434 51.274,27.434 C51.538,27.176 51.69,26.824 51.697,26.455 C51.697,26.455 51.716,12.669 51.716,12.669 C51.715,12.292 51.562,11.932 51.293,11.669 C51.293,11.669 48.295,8.675 48.295,8.675 C48.295,8.675 53.575,3.399 53.575,3.399 C54.127,2.856 54.134,1.969 53.59,1.418 C53.318,1.142 52.944,0.99 52.557,1 C52.557,1 52.557,1 52.557,1 ZM18.93,24.017 C18.159,24.09 17.593,24.774 17.666,25.545 C17.698,25.876 17.846,26.185 18.084,26.416 C18.084,26.416 28.558,36.881 28.558,36.881 C29.066,37.466 29.953,37.528 30.538,37.02 C31.123,36.513 31.185,35.627 30.677,35.043 C30.634,34.993 30.587,34.947 30.538,34.903 C30.538,34.903 20.064,24.439 20.064,24.439 C19.769,24.134 19.352,23.979 18.93,24.017 C18.93,24.017 18.93,24.017 18.93,24.017 Z "/>
</svg>
