<svg xmlns="http://www.w3.org/2000/svg" width="36.906" height="37.12" viewBox="0 0 36.906 37.12">
  <defs>
    <style>
      .cls-1 {
        fill: #818181;
        fill-rule: evenodd;
      }
    </style>
  </defs>
  <path id="G_Icon" data-name="G+ Icon" class="cls-1" d="M420.121,8758.18c-1.014-.76-3.22-2.32-3.22-3.37,0-1.23.348-1.83,2.2-3.28a7.469,7.469,0,0,0,3.23-5.86,6.909,6.909,0,0,0-3.1-6.19H422.1l2.443-2.52H413.6c-5.549,0-10.176,4.05-10.176,8.56,0,4.6,3.039,8.28,8.26,8.28,0.362,0,.716-0.02,1.06-0.04a4.585,4.585,0,0,0-.58,2.13,3.843,3.843,0,0,0,1.572,2.86c-0.657,0-1.291.02-1.984,0.02-6.355,0-10.766,2.02-10.766,8.27,0,4.15,5.326,7.04,11.681,7.04,7.243,0,11.764-3.85,11.7-8.26C424.318,8762.51,423.653,8760.84,420.121,8758.18Zm-12.26-12.43c-0.486-3.66,1.967-6.22,4.764-6.13s4.619,2.84,5.1,6.5-1.126,5.92-3.923,5.84S408.343,8749.42,407.861,8745.75Zm4.683,25.62c-4.128,0-7.11-2.38-7.11-5.3,0-2.87,3.344-4.39,7.389-4.39,1.5,0,6.016,0,7.417,3.5a2.9,2.9,0,0,1,.132,1.03C420.372,8769.14,418.349,8771.37,412.544,8771.37Zm25.357-27.35h-4.615v4.59h-2.395v-4.59h-4.535v-2.33h4.535v-4.72h2.395v4.72H437.9v2.33Z" transform="translate(-401 -8736.97)"/>
</svg>
